<?xml version="1.0" encoding="iso-8859-1"?>
<!-- Generator: Adobe Illustrator 17.0.0, SVG Export Plug-In . SVG Version: 6.00 Build 0)  -->
<svg version="1.2" baseProfile="tiny" id="Capa_1" xmlns="http://www.w3.org/2000/svg" xmlns:xlink="http://www.w3.org/1999/xlink"
	 x="0px" y="0px" width="50px" height="50px" viewBox="0 0 50 50" xml:space="preserve">
<g>
	<circle fill="#C3252A" cx="25" cy="25" r="25"/>
	<path fill="#FFFFFF" d="M24.496,26.876c0,0-1.621-1.332,0-2.722c0,0,2.432-1.448,2.952-3.822c0,0,0.753-3.3-2.2-5.269h1.911
		l2.258-1.274h-8.454c0,0-4.633,0.059-6.08,3.764c0,0-1.332,3.011,0.695,5.501c0,0,1.274,1.795,3.705,2.027l1.68-0.058
		c0,0-1.042,1.622,0.637,3.473c0,0-5.676,0.117-7.47,2.376c0,0-3.185,3.011,0.232,6.253c0,0,2.316,2.143,7.875,1.39
		c0,0,4.11-0.695,5.906-3.996c0,0,1.504-3.011-1.042-5.442C27.101,29.077,25.248,27.339,24.496,26.876z M17.72,20.564
		c-0.791-2.507,0.026-5.001,1.826-5.569c1.8-0.568,3.9,1.003,4.692,3.511c0.792,2.507-0.025,5.001-1.826,5.568
		C20.613,24.643,18.512,23.071,17.72,20.564z M25.315,35.972c-2.722,2.199-6.263,0.921-6.263,0.921
		c-4.691-1.505-3.011-5.038-3.011-5.038c1.853-3.011,6.717-2.373,6.717-2.373l2.257,1.736
		C27.877,33.689,25.315,35.972,25.315,35.972z"/>
	<polygon fill="#FFFFFF" points="40.54,18.321 37.158,18.321 37.158,14.94 35.605,14.94 35.605,18.321 32.222,18.321 32.222,19.875 
		35.605,19.875 35.605,23.257 37.158,23.257 37.158,19.875 40.54,19.875 	"/>
</g>
</svg>
