<?xml version="1.0" encoding="iso-8859-1"?>
<!-- Generator: Adobe Illustrator 17.0.0, SVG Export Plug-In . SVG Version: 6.00 Build 0)  -->
<svg version="1.2" baseProfile="tiny" id="Capa_1" xmlns="http://www.w3.org/2000/svg" xmlns:xlink="http://www.w3.org/1999/xlink"
	 x="0px" y="0px" width="50px" height="50px" viewBox="0 0 50 50" xml:space="preserve">
<g>
	<circle fill="#4D3E39" cx="25" cy="24.999" r="25"/>
	<path fill="#FFFFFF" d="M37.548,34.51c0,2.033-1.563,3.681-3.492,3.681h-18.08c-1.928,0-3.492-1.648-3.492-3.681V16.03
		c0-2.033,1.563-3.681,3.492-3.681h18.08c1.929,0,3.492,1.648,3.492,3.681V34.51z"/>
	<path fill="#4D3E39" d="M30.055,19.51v-3.416c0,0,0.065-0.709,0.709-0.709h3.48c0,0,0.645,0.065,0.645,0.644
		c0,0.58,0,3.609,0,3.609s-0.13,0.547-0.548,0.547s-3.641,0-3.641,0S30.055,20.155,30.055,19.51z"/>
	<path fill="#4D3E39" d="M15.109,23.243h2.442c0,0-1.392,4.779,2.495,7.983c0,0,2.075,1.891,5.147,1.839c0,0,3.73-0.158,5.751-2.731
		c0,0,2.592-3.045,1.635-7.148h2.371v11.216c0,0-0.046,0.753-0.752,0.753H15.801c0,0-0.719-0.137-0.719-0.719
		C15.082,33.854,15.109,23.243,15.109,23.243z"/>
	<circle fill="#4D3E39" cx="25.056" cy="25.306" r="4.947"/>
</g>
</svg>
