<?xml version="1.0" encoding="iso-8859-1"?>
<!-- Generator: Adobe Illustrator 17.0.0, SVG Export Plug-In . SVG Version: 6.00 Build 0)  -->
<svg version="1.2" baseProfile="tiny" id="Capa_1" xmlns="http://www.w3.org/2000/svg" xmlns:xlink="http://www.w3.org/1999/xlink"
	 x="0px" y="0px" width="50px" height="50px" viewBox="0 0 50 50" xml:space="preserve">
<g>
	<circle fill="#B6252C" cx="25" cy="25" r="25"/>
	<path fill="#FFFFFF" d="M18.907,26.204c0,0,0.415,0.127,0.234,0.902l-0.468,1.55c0,0-0.307,0.289-0.775,0.055
		c0,0-3.762-1.348-2.999-7.631c0,0,0.726-5.338,6.029-7.336c5.302-1.997,9.806-0.036,10.351,0.254
		c0.544,0.291,5.338,3.197,4.903,8.899c-0.437,5.702-3.268,7.772-3.849,8.28c-0.581,0.508-5.739,3.45-8.608-0.327l-1.452,5.266
		c0,0-0.726,1.816-1.344,2.361c0,0-1.78-0.508-1.852-0.726c0,0-0.109-2.47,0.181-3.305l2.143-8.861c0,0-0.944-2.506-0.254-4.177
		c0,0,1.089-2.942,3.341-2.433c0,0,2.034,0.472,1.598,3.123l-1.199,4.176c0,0-0.545,1.961,0.363,2.761c0,0,1.525,1.961,4.213,0.145
		c0,0,1.925-0.763,2.688-5.775c0,0,0.618-4.468-1.816-6.32c0,0-2.76-2.65-7.772-1.016c0,0-3.778,1.307-4.54,5.339
		C18.022,21.407,17.322,23.738,18.907,26.204z"/>
</g>
</svg>
