<?xml version="1.0" encoding="iso-8859-1"?>
<!-- Generator: Adobe Illustrator 17.0.0, SVG Export Plug-In . SVG Version: 6.00 Build 0)  -->
<svg version="1.2" baseProfile="tiny" id="Capa_1" xmlns="http://www.w3.org/2000/svg" xmlns:xlink="http://www.w3.org/1999/xlink"
	 x="0px" y="0px" width="50px" height="50px" viewBox="0 0 50 50" xml:space="preserve">
<g>
	<circle fill="#1E8EB4" cx="25" cy="25" r="25"/>
	<path fill="#FFFFFF" d="M16.732,27.658V15.499c0,0-0.359-3.757,3.021-3.757c0,0,3.021-0.24,3.021,2.358v3.758h9.874
		c0,0,2.505,0.59,2.284,3.39c0,0-0.294,2.505-2.874,2.727h-9.211v3.315c0,0-0.121,2.653,2.284,2.653h6.853
		c0,0,2.873,0.074,2.947,3.242c0,0-0.147,2.727-3.021,2.948h-6.705C25.206,36.132,16.732,35.67,16.732,27.658z"/>
</g>
</svg>
