<?xml version="1.0" encoding="iso-8859-1"?>
<!-- Generator: Adobe Illustrator 17.0.0, SVG Export Plug-In . SVG Version: 6.00 Build 0)  -->
<svg version="1.2" baseProfile="tiny" id="Capa_1" xmlns="http://www.w3.org/2000/svg" xmlns:xlink="http://www.w3.org/1999/xlink"
	 x="0px" y="0px" width="50px" height="50px" viewBox="0 0 50 50" xml:space="preserve">
<g>
	<circle fill="#69B4E6" cx="25" cy="24.999" r="25"/>
	<path fill="#FFFFFF" d="M12.618,22.492l-1.301-1.659c0,0,5.113-4.485,5.651-4.844c0,0,3.139-2.691,5.202,0.718
		c0,0,0.584,0.314,1.391,6.189c0,0,0.718,5.023,2.107,6.368c0,0,0.494,0.224,1.167-0.448c0,0,3.274-3.723,3.453-6.414
		c0,0,0.359-3.006-3.722-1.525c0,0,1.166-4.574,4.441-5.741c0,0,4.709-1.748,6.189,1.301c0,0,1.435,2.825-0.179,6.683
		c-1.615,3.857-7.311,11.481-9.956,13.006c0,0-3.902,2.96-6.1,0.224c0,0-1.524-1.749-2.063-4.53c0,0-2.331-11.302-4.396-10.539
		C14.501,21.281,12.752,22.178,12.618,22.492z"/>
</g>
</svg>
