<?xml version="1.0" encoding="iso-8859-1"?>
<!-- Generator: Adobe Illustrator 17.0.0, SVG Export Plug-In . SVG Version: 6.00 Build 0)  -->
<svg version="1.2" baseProfile="tiny" id="Capa_1" xmlns="http://www.w3.org/2000/svg" xmlns:xlink="http://www.w3.org/1999/xlink"
	 x="0px" y="0px" width="50px" height="50px" viewBox="0 0 50 50" xml:space="preserve">
<g>
	<circle fill="#C3252A" cx="25" cy="25" r="25"/>
	<path fill="#FFFFFF" d="M12.613,34.786c0,0-0.388-8.308,0.272-9.899c0,0,0.505-2.289,2.522-2.795c0,0,8.501-1.008,20.107,0
		c0,0,2.251,0.467,2.561,2.912c0,0,0.932,6.871-0.038,11.606c0,0-0.272,2.445-3.067,2.755c0,0-11.062,0.816-19.136,0
		C15.834,39.365,12.73,39.326,12.613,34.786z"/>
	<polygon fill="#FFFFFF" points="19.299,13.028 18.062,8.427 16.164,8.427 18.383,15.386 18.383,20.147 20.123,20.147 
		20.123,15.386 22.252,8.405 20.535,8.405 	"/>
	<path fill="#FFFFFF" d="M31.225,11.38v6.707c-1.344,1.341-1.396,0.321-1.396,0.321v-6.981h-1.533l-0.025,7.347
		c0,0.796,0.301,1.095,0.301,1.095c1.181,1.181,2.653-0.66,2.653-0.66v0.892h1.556V11.38H31.225z"/>
	<path fill="#FFFFFF" d="M24.609,11.221c-2.344,0-2.271,2.357-2.271,2.357s-0.018,2.336-0.018,4.509
		c0,2.157,2.289,2.128,2.289,2.128c2.399,0,2.31-2.243,2.31-2.243v-4.556C26.92,11.068,24.609,11.221,24.609,11.221z M25.25,17.874
		c0,0,0.07,0.823-0.581,0.823c0,0-0.744,0.182-0.744-0.823v-4.419c0,0-0.03-0.669,0.683-0.703c0,0,0.624-0.026,0.642,0.723V17.874z"
		/>
	<path fill="#C3222E" d="M19.718,27.712l1.594-0.022v7.161c0,0-0.045,1.122,1.391-0.314V27.69h1.64v8.888h-1.618v-0.942
		c0,0-3.028,2.715-3.028-0.517C19.696,31.888,19.718,27.712,19.718,27.712z"/>
	<polygon fill="#C3222E" points="15.825,36.534 15.825,26.365 13.938,26.365 13.938,24.727 19.483,24.727 19.483,26.388 
		17.598,26.388 17.598,36.534 	"/>
	<path fill="#C3222E" d="M27.289,28.529V24.74h-1.614v11.815l1.614,0.022v-0.897c2.937,2.421,3.049-0.695,3.049-0.695v-5.47
		C30.137,25.906,27.289,28.529,27.289,28.529z M28.746,34.559c0,0-0.156,0.964-1.479,0.202v-5.336c0,0,1.479-1.077,1.479,0.382
		C28.746,31.264,28.746,34.559,28.746,34.559z"/>
	<path fill="#C3222E" d="M36.363,32.41v-2.524c0,0-0.129-2.33-2.329-2.33c0,0-2.411-0.064-2.411,2.411c0,2.475,0,4.417,0,4.417
		s0.065,2.232,2.572,2.232c0,0,2.151-0.081,2.151-1.94v-1.246h-1.601v0.906c0,0-0.049,0.825-0.711,0.825
		c0,0-0.842,0.113-0.842-0.955c0-1.068,0-1.796,0-1.796H36.363z M33.209,29.967c0,0-0.016-0.921,0.744-0.921
		c0.761,0,0.825,0.937,0.825,0.937v1.069h-1.585L33.209,29.967z"/>
</g>
</svg>
