<?xml version="1.0" encoding="iso-8859-1"?>
<!-- Generator: Adobe Illustrator 17.0.0, SVG Export Plug-In . SVG Version: 6.00 Build 0)  -->
<svg version="1.2" baseProfile="tiny" id="LOGO" xmlns="http://www.w3.org/2000/svg" xmlns:xlink="http://www.w3.org/1999/xlink"
	 x="0px" y="0px" width="444px" height="186.125px" viewBox="0 0 444 186.125" overflow="scroll" xml:space="preserve">
<g>
	<g>
		<g>
			<polygon fill="#A6A7AA" points="2.5,97.016 16.097,97.016 16.097,130.176 37.325,130.176 37.325,141.014 2.5,141.014 			"/>
			<path fill="#A6A7AA" d="M46.892,119.039c0-7.18,2.003-12.771,6.002-16.781c4-3.992,9.575-6.006,16.721-6.006
				c7.326,0,12.962,1.978,16.93,5.914c3.961,3.918,5.941,9.437,5.941,16.518c0,5.137-0.866,9.354-2.598,12.658
				c-1.732,3.287-4.23,5.844-7.505,7.684c-3.27,1.818-7.344,2.736-12.232,2.736c-4.957,0-9.064-0.787-12.319-2.365
				c-3.251-1.59-5.892-4.09-7.907-7.51C47.899,128.465,46.892,124.18,46.892,119.039z M60.489,119.102
				c0,4.451,0.828,7.633,2.476,9.58c1.648,1.938,3.898,2.906,6.734,2.906c2.927,0,5.185-0.953,6.791-2.84
				c1.596-1.91,2.401-5.322,2.401-10.248c0-4.143-0.834-7.168-2.51-9.07c-1.669-1.922-3.934-2.879-6.797-2.879
				c-2.741,0-4.944,0.973-6.602,2.917C61.321,111.406,60.489,114.618,60.489,119.102z"/>
			<path fill="#A6A7AA" d="M128.082,125.074v-9.152h21.013v18.762c-4.021,2.734-7.58,4.602-10.672,5.6
				c-3.095,0.979-6.76,1.479-11.003,1.479c-5.219,0-9.48-0.891-12.771-2.676c-3.294-1.766-5.845-4.424-7.657-7.943
				c-1.809-3.529-2.717-7.563-2.717-12.133c0-4.803,0.991-8.979,2.972-12.525c1.983-3.555,4.884-6.254,8.71-8.1
				c2.981-1.41,6.99-2.133,12.034-2.133c4.864,0,8.503,0.445,10.915,1.322c2.405,0.885,4.41,2.254,6.002,4.107
				c1.587,1.842,2.788,4.195,3.586,7.031l-13.119,2.346c-0.537-1.658-1.455-2.926-2.745-3.809c-1.294-0.879-2.935-1.322-4.939-1.322
				c-2.981,0-5.357,1.027-7.129,3.111c-1.769,2.066-2.653,5.34-2.653,9.828c0,4.764,0.89,8.166,2.683,10.207
				c1.794,2.033,4.287,3.061,7.49,3.061c1.52,0,2.972-0.227,4.353-0.668c1.378-0.439,2.962-1.189,4.744-2.258v-4.135H128.082z"/>
			<path fill="#A6A7AA" d="M161.608,119.039c0-7.18,1.994-12.771,6.002-16.781c4.001-3.992,9.574-6.006,16.719-6.006
				c7.328,0,12.967,1.978,16.933,5.914c3.958,3.918,5.942,9.437,5.942,16.518c0,5.137-0.87,9.354-2.598,12.658
				c-1.734,3.287-4.232,5.844-7.505,7.684c-3.273,1.818-7.353,2.736-12.233,2.736c-4.965,0-9.067-0.787-12.318-2.365
				c-3.254-1.59-5.892-4.09-7.91-7.51C162.617,128.465,161.608,124.18,161.608,119.039z M175.203,119.102
				c0,4.451,0.824,7.633,2.479,9.58c1.648,1.938,3.895,2.906,6.734,2.906c2.925,0,5.187-0.953,6.788-2.84
				c1.6-1.91,2.398-5.322,2.398-10.248c0-4.143-0.836-7.168-2.503-9.07c-1.674-1.922-3.942-2.879-6.801-2.879
				c-2.737,0-4.943,0.973-6.599,2.917C176.029,111.406,175.203,114.618,175.203,119.102z"/>
		</g>
		<path fill="#4578A4" d="M244.227,97.016h41.341v10.854h-13.872v33.145h-13.595v-33.145h-13.874V97.016z"/>
		<path fill="#4578A4" d="M297.835,97.016h36.441v9.395H311.46v6.982h21.168v8.977H311.46v8.676h23.475v9.969h-37.1V97.016z"/>
		<path fill="#4578A4" d="M346.288,97.016h14.978l7.797,13.529l7.571-13.529h14.84l-13.698,21.309l14.986,22.689h-15.289
			l-8.678-14.139l-8.693,14.139h-15.195l15.184-22.938L346.288,97.016z"/>
		<path fill="#4578A4" d="M400.16,97.016h41.34v10.854h-13.873v33.145h-13.594v-33.145H400.16V97.016z"/>
		<g>
			<path fill="#A6A7AA" d="M11.518,169.191v-6.031l-5.482-8.201h2.289l2.807,4.287c0.513,0.813,0.997,1.617,1.444,2.414
				c0.427-0.743,0.945-1.594,1.556-2.506l2.754-4.195h2.194l-5.682,8.201v6.031H11.518z"/>
			<path fill="#A6A7AA" d="M33.314,162.256c0-2.357,0.632-4.211,1.9-5.545c1.27-1.34,2.91-2.002,4.911-2.002
				c1.313,0,2.501,0.31,3.557,0.947c1.053,0.619,1.855,1.49,2.413,2.627c0.552,1.119,0.83,2.387,0.83,3.816
				c0,1.434-0.295,2.727-0.875,3.875c-0.58,1.135-1.41,1.998-2.478,2.584c-1.066,0.578-2.216,0.879-3.456,0.879
				c-1.334,0-2.536-0.334-3.59-0.973c-1.054-0.656-1.851-1.539-2.398-2.65C33.585,164.701,33.314,163.504,33.314,162.256z
				 M35.255,162.283c0,1.715,0.462,3.068,1.387,4.061c0.916,0.99,2.076,1.475,3.466,1.475c1.418,0,2.581-0.488,3.498-1.488
				c0.918-1.002,1.379-2.408,1.379-4.24c0-1.166-0.197-2.17-0.593-3.035c-0.391-0.863-0.963-1.541-1.717-2.004
				c-0.754-0.477-1.598-0.723-2.539-0.723c-1.327,0-2.478,0.459-3.442,1.375C35.737,158.621,35.255,160.144,35.255,162.283z"/>
			<path fill="#A6A7AA" d="M71.809,154.959h1.881v8.221c0,1.438-0.159,2.564-0.488,3.408c-0.319,0.842-0.91,1.531-1.752,2.048
				c-0.843,0.532-1.952,0.802-3.321,0.802c-1.334,0-2.425-0.236-3.273-0.699c-0.847-0.457-1.449-1.117-1.811-1.984
				c-0.367-0.871-0.547-2.061-0.547-3.574v-8.221h1.881v8.209c0,1.236,0.119,2.146,0.349,2.74c0.23,0.59,0.624,1.029,1.18,1.355
				c0.564,0.314,1.243,0.479,2.057,0.479c1.381,0,2.373-0.326,2.961-0.945c0.586-0.631,0.883-1.836,0.883-3.629V154.959z"/>
			<path fill="#A6A7AA" d="M89.974,169.191v-14.232h6.304c1.273,0,2.236,0.131,2.897,0.393c0.661,0.25,1.187,0.703,1.586,1.344
				c0.392,0.654,0.59,1.365,0.59,2.143c0,1.02-0.331,1.865-0.985,2.555c-0.655,0.701-1.661,1.139-3.023,1.32
				c0.495,0.248,0.875,0.477,1.132,0.721c0.554,0.5,1.071,1.129,1.564,1.881l2.473,3.877h-2.37l-1.882-2.965
				c-0.547-0.85-1-1.496-1.353-1.953c-0.363-0.453-0.677-0.778-0.96-0.953c-0.285-0.186-0.564-0.301-0.859-0.377
				c-0.214-0.047-0.561-0.068-1.049-0.068h-2.184v6.316H89.974z M91.855,161.248h4.048c0.86,0,1.534-0.096,2.021-0.279
				c0.483-0.168,0.854-0.457,1.109-0.855c0.247-0.389,0.376-0.813,0.376-1.275c0-0.668-0.245-1.221-0.735-1.658
				c-0.484-0.432-1.259-0.639-2.313-0.639h-4.505V161.248z"/>
			<path fill="#A6A7AA" d="M139.327,169.191v-12.556h-4.689v-1.677h11.276v1.677h-4.706v12.556H139.327z"/>
			<path fill="#A6A7AA" d="M157.927,169.191l5.463-14.232h2.031l5.826,14.232h-2.148l-1.664-4.311h-5.948l-1.556,4.311H157.927z
				 M162.037,163.35h4.82l-1.483-3.941c-0.458-1.193-0.791-2.182-1.009-2.949c-0.182,0.912-0.438,1.822-0.771,2.723L162.037,163.35z
				"/>
			<path fill="#A6A7AA" d="M192.53,163.607v-1.67l6.021-0.01v5.285c-0.919,0.738-1.878,1.297-2.861,1.664
				c-0.987,0.369-1.992,0.56-3.026,0.56c-1.402,0-2.671-0.31-3.808-0.894c-1.143-0.611-2.007-1.475-2.59-2.602
				c-0.583-1.137-0.872-2.408-0.872-3.793c0-1.389,0.285-2.682,0.87-3.877c0.576-1.199,1.405-2.088,2.495-2.678
				c1.089-0.588,2.339-0.873,3.761-0.873c1.029,0,1.95,0.172,2.784,0.502c0.839,0.328,1.49,0.795,1.955,1.395
				c0.475,0.585,0.839,1.362,1.077,2.319l-1.693,0.471c-0.216-0.721-0.482-1.291-0.795-1.709c-0.316-0.416-0.767-0.744-1.361-1
				c-0.588-0.246-1.239-0.371-1.956-0.371c-0.86,0-1.607,0.137-2.236,0.393c-0.625,0.273-1.134,0.613-1.517,1.037
				c-0.384,0.43-0.688,0.9-0.899,1.414c-0.361,0.878-0.539,1.822-0.539,2.859c0,1.266,0.216,2.321,0.654,3.175
				c0.438,0.857,1.072,1.495,1.904,1.911c0.835,0.408,1.726,0.625,2.659,0.625c0.819,0,1.613-0.162,2.387-0.473
				c0.779-0.326,1.367-0.656,1.768-1.01v-2.652H192.53z"/>
			<path fill="#A6A7AA" d="M214.374,169.191v-14.232h1.881v12.549h7.008v1.684H214.374z"/>
			<path fill="#A6A7AA" d="M238.938,169.191v-14.232h1.892v14.232H238.938z"/>
			<path fill="#A6A7AA" d="M257.251,169.191v-14.232h1.925l7.482,11.168v-11.168h1.809v14.232h-1.94l-7.464-11.186v11.186H257.251z"
				/>
			<path fill="#A6A7AA" d="M284.787,169.191v-14.232h10.287v1.677h-8.414v4.358h7.88v1.67h-7.88v4.844h8.741v1.684H284.787z"/>
			<path fill="#A6A7AA" d="M329.815,169.191v-14.232h1.889v5.848h7.402v-5.848h1.873v14.232h-1.873v-6.703h-7.402v6.703H329.815z"/>
			<path fill="#A6A7AA" d="M357.272,169.191v-14.232h10.291v1.677h-8.4v4.358h7.878v1.67h-7.878v4.844h8.742v1.684H357.272z"/>
			<path fill="#A6A7AA" d="M383.649,169.191v-14.232h6.306c1.264,0,2.233,0.131,2.902,0.393c0.65,0.25,1.184,0.703,1.578,1.344
				c0.395,0.654,0.582,1.365,0.582,2.143c0,1.02-0.325,1.865-0.972,2.555c-0.661,0.701-1.665,1.139-3.029,1.32
				c0.502,0.248,0.878,0.477,1.133,0.721c0.552,0.5,1.075,1.129,1.565,1.881l2.48,3.877h-2.379l-1.873-2.965
				c-0.553-0.85-1.01-1.496-1.361-1.953c-0.355-0.453-0.685-0.778-0.963-0.953c-0.275-0.186-0.571-0.301-0.856-0.377
				c-0.204-0.047-0.567-0.068-1.048-0.068h-2.188v6.316H383.649z M385.527,161.248h4.05c0.858,0,1.542-0.096,2.015-0.279
				c0.485-0.168,0.852-0.457,1.112-0.855c0.249-0.389,0.378-0.813,0.378-1.275c0-0.668-0.236-1.221-0.726-1.658
				c-0.493-0.432-1.263-0.639-2.324-0.639h-4.505V161.248z"/>
			<path fill="#A6A7AA" d="M411.135,169.191v-14.232h10.288v1.677h-8.415v4.358h7.876v1.67h-7.876v4.844h8.744v1.684H411.135z"/>
		</g>
	</g>
	<g>
		<g>
			<path fill="#4578A4" d="M335.459,4.915c-0.009-0.373-0.274-0.678-0.649-0.745c-2.735-0.547-5.473-1.078-8.224-1.623
				c-5.3-1.032-10.663-1.733-16.052-2.098c-0.054-0.003-0.102-0.007-0.17-0.013c-5.392-0.366-10.797-0.497-16.211-0.413
				c-3.242,0.048-6.489,0.096-9.725,0.161c-6.283,0.094-12.543,0.545-18.761,1.347c-0.062,0.007-0.122,0.015-0.179,0.022
				c-6.218,0.793-12.389,1.949-18.465,3.432c-2.042,0.509-4.074,1.004-6.102,1.498c-2.915,0.869-5.831,1.735-8.723,2.578
				c-3.291,0.949-6.776,1.382-10.201,1.382c-3.429,0-6.91-0.433-10.198-1.382c-2.893-0.842-5.808-1.709-8.725-2.578
				c-2.028-0.494-4.065-0.989-6.096-1.498c-6.082-1.483-12.246-2.64-18.463-3.432c-0.066-0.007-0.125-0.015-0.191-0.022
				c-6.219-0.802-12.477-1.253-18.745-1.347c-3.253-0.065-6.495-0.112-9.739-0.161c-5.412-0.083-10.817,0.047-16.216,0.413
				c-0.051,0.005-0.109,0.01-0.16,0.013c-5.396,0.365-10.759,1.065-16.06,2.098c-2.735,0.545-5.481,1.076-8.223,1.623
				c-0.369,0.066-0.635,0.371-0.644,0.745c-0.139,6.623-0.273,13.247-0.408,19.863c-0.005,0.396,0.181,0.772,0.486,1.032
				c2.664,2.221,4.604,5.219,5.501,8.518c1.278,4.707,3.637,12.039,5.227,16.663c1.581,4.599,5.672,13.58,8.656,17.48
				c5.686,7.337,15.201,8.59,25.468,9.941c4.754,0.313,19.942,0.674,24.651-0.045c0.049-0.006,0.096-0.014,0.149-0.021
				c4.659-0.713,9.073-2.475,12.907-5.14c0.016-0.013,0.035-0.025,0.051-0.038c3.613-2.51,6.588-5.782,8.705-9.564
				c1.877-3.358,3.767-6.734,5.654-10.124c2.22-4.913,4.669-10.817,6.968-15.699c1.075-2.016,3.781-4.382,6.01-5.075
				c2.211-0.834,4.504-0.784,6.758-0.07c0.023,0.01,0.044,0.015,0.066,0.022c2.232,0.695,4.981,3.107,6.044,5.123
				c2.307,4.882,4.759,10.786,6.973,15.699c1.884,3.39,3.781,6.766,5.654,10.124c2.126,3.782,5.097,7.055,8.704,9.564
				c0.017,0.013,0.044,0.025,0.063,0.038c3.824,2.665,8.246,4.427,12.906,5.14c0.043,0.008,0.092,0.016,0.137,0.021
				c4.708,0.719,19.901,0.357,24.656,0.045c10.262-1.352,19.785-2.604,25.479-9.941c2.976-3.899,7.056-12.881,8.654-17.48
				c1.592-4.624,3.938-11.956,5.221-16.663c0.893-3.299,2.834-6.297,5.5-8.518c0.307-0.26,0.49-0.636,0.482-1.032
				C335.728,18.162,335.597,11.538,335.459,4.915z M204.445,38.102c-0.605,1.99-1.217,3.979-1.821,5.966
				c-1.179,3.024-2.347,6.031-3.528,9.055c-1.579,4.059-3.704,7.895-6.322,11.425c-0.014,0.015-0.025,0.034-0.039,0.051
				c-2.312,3.114-5.427,5.673-8.974,7.393c-3.562,1.71-7.549,2.729-11.519,2.913c-5.692,0.262-11.43,0.036-17.081-0.64
				c-2.797-0.342-5.367-0.663-7.474-0.983c-8.566-1.476-14.413-5.192-18.014-12.244c-2.385-4.68-4.456-10.888-5.794-15.938
				c-1.764-6.663-2.293-14.251-1.262-21.06c0.593-3.896,1.7-7.459,4.943-9.822c0.032-0.022,0.065-0.045,0.102-0.082
				c3.301-2.407,8.299-3.866,12.431-4.19c2.568-0.201,5.132-0.403,7.696-0.607c11.068-0.873,22.292-0.549,33.292,0.96
				c4.884,0.668,9.709,2.08,14.153,4.144c0.031,0.01,0.052,0.019,0.072,0.029c3.288,1.53,6.046,4.021,7.883,7.074
				c0.691,1.154,1.233,2.379,1.608,3.661C206.002,29.262,205.027,33.742,204.445,38.102z M320.119,45.099
				c-1.334,5.05-3.408,11.258-5.791,15.938c-3.6,7.052-9.44,10.769-18.014,12.244c-2.102,0.32-4.678,0.642-7.472,0.983
				c-5.657,0.676-11.401,0.901-17.078,0.64c-3.975-0.184-7.969-1.203-11.526-2.913c-3.546-1.72-6.662-4.278-8.967-7.393
				c-0.012-0.017-0.038-0.036-0.051-0.051c-2.605-3.53-4.735-7.366-6.317-11.425c-1.171-3.023-2.358-6.03-3.526-9.055
				c-0.61-1.987-1.208-3.976-1.82-5.966c-0.588-4.36-1.555-8.841-0.364-12.896c0.38-1.282,0.918-2.506,1.626-3.661
				c1.827-3.053,4.585-5.543,7.875-7.074c0.022-0.01,0.042-0.02,0.063-0.029c4.444-2.064,9.276-3.475,14.159-4.144
				c10.996-1.509,22.225-1.833,33.3-0.96c2.56,0.204,5.126,0.407,7.683,0.607c4.139,0.324,9.132,1.783,12.439,4.19
				c0.032,0.036,0.063,0.06,0.109,0.082c3.23,2.363,4.342,5.925,4.937,9.822C322.404,30.848,321.883,38.436,320.119,45.099z"/>
			<path fill="#4578A4" d="M161.327,54.788c8.51,0,15.403-6.895,15.403-15.395c0-8.502-6.894-15.398-15.403-15.398
				c-3.12,0-6.017,0.928-8.443,2.522l10.065,14.53l-16.757-4.485c-0.167,0.916-0.262,1.867-0.262,2.831
				C145.931,47.893,152.827,54.788,161.327,54.788z"/>
			<path fill="#4578A4" d="M283.335,54.788c8.503,0,15.396-6.895,15.396-15.395c0-8.502-6.894-15.398-15.396-15.398
				c-3.116,0-6.019,0.928-8.447,2.522l10.064,14.53l-16.752-4.485c-0.172,0.916-0.26,1.867-0.26,2.831
				C267.94,47.893,274.833,54.788,283.335,54.788z"/>
		</g>
		<rect y="76.685" fill="#4578A4" width="444" height="2.458"/>
		<rect y="183.668" fill="#4578A4" width="444" height="2.457"/>
	</g>
</g>
<g>
</g>
<g>
</g>
<g>
</g>
<g>
</g>
<g>
</g>
<g>
</g>
</svg>
