<?xml version="1.0" encoding="iso-8859-1"?>
<!-- Generator: Adobe Illustrator 17.0.0, SVG Export Plug-In . SVG Version: 6.00 Build 0)  -->
<svg version="1.2" baseProfile="tiny" id="Capa_1" xmlns="http://www.w3.org/2000/svg" xmlns:xlink="http://www.w3.org/1999/xlink"
	 x="0px" y="0px" width="100px" height="100px" viewBox="0 0 100 100" xml:space="preserve">
<g>
	<path fill="#2394BC" d="M87.494,16.998v46.095c0,8.3-6.428,15.045-14.685,15.045h-1.963c-8.257,0-14.681-6.745-14.681-15.045
		V43.758c0-2.91-2.238-6.288-5.138-6.288H30.273c-2.9,0-5.382,3.2-5.382,5.89c0,2.784,2.523,5.853,5.498,6.004l2.499,0.163
		c8.194,0.431,14.656,7.04,14.401,14.734c-0.257,7.652-7.107,13.877-15.28,13.877H8.669C17.674,91.334,32.821,100,49.998,100
		C77.615,100,100,77.615,100,49.998C100,37.335,95.253,25.811,87.494,16.998L87.494,16.998z M87.494,16.998"/>
	<path fill="#3DB39E" d="M37.573,63.939c0.079-2.375-2.3-4.499-5.196-4.65l-2.501-0.164c-8.106-0.422-14.413-7.819-14.413-15.761
		c0-8.081,6.43-15.245,14.688-15.245h19.68c8.262,0,15.759,7.342,15.759,15.642v19.335c0,2.913,2.36,5.275,5.256,5.275h1.963
		c2.9,0,5.256-2.362,5.256-5.275V8.622C70.062,3.185,60.405,0,50.002,0C22.385,0,0,22.389,0,50.001
		c0,6.601,1.309,12.888,3.634,18.659h28.379C34.945,68.663,37.494,66.342,37.573,63.939L37.573,63.939z M37.573,63.939"/>
</g>
</svg>
